<svg width="125" height="124" viewBox="0 0 125 124" fill="none" xmlns="http://www.w3.org/2000/svg">
<g id="Group">
<path id="Vector" d="M58.1722 43.0623H66.8279C70.6312 43.0623 73.6476 46.1902 73.6476 49.8394H84.5328C84.5328 40.4557 77.1886 32.8967 67.8771 32.2451V22.7312H56.9919V32.2451C47.6804 32.8967 40.3361 40.4557 40.3361 49.8394C40.3361 59.6139 48.3361 67.564 58.1722 67.564H66.8279C70.6312 67.564 73.6476 70.6918 73.6476 74.341C73.6476 78.1205 70.5001 81.1181 66.8279 81.1181H58.1722C54.3689 81.1181 51.3525 77.9902 51.3525 74.341H40.4673C40.4673 83.7246 47.8115 91.2836 57.123 91.9353V101.449H68.0083V91.9353C77.3197 91.2836 84.664 83.7246 84.664 74.341C84.664 64.5664 76.664 56.6164 66.8279 56.6164H58.1722C54.3689 56.6164 51.3525 53.4885 51.3525 49.8394C51.3525 46.0598 54.3689 43.0623 58.1722 43.0623Z" fill="#FF7F50"/>
<path id="Vector_2" d="M62.5 0.184433C28.1394 0.184433 0.204956 27.9443 0.204956 62.0902C0.204956 96.2361 28.1394 123.996 62.5 123.996C96.8607 123.996 124.795 96.2361 124.795 62.0902C124.795 27.9443 96.8607 0.184433 62.5 0.184433ZM102.5 94.1508L92.4017 84.1156L84.664 91.8049L94.7623 101.84C85.9754 108.878 74.6968 113.179 62.5 113.179C34.1722 113.179 11.0902 90.241 11.0902 62.0902C11.0902 49.9697 15.4181 38.7615 22.5 30.0295L32.5984 40.0648L40.3361 32.3754L30.2377 22.3402C39.0246 15.3025 50.3033 11.0016 62.5 11.0016C90.8279 11.0016 113.91 33.9394 113.91 62.0902C113.91 74.2107 109.582 85.4189 102.5 94.1508Z" fill="#FF7F50"/>
</g>
</svg>
