<svg width="125" height="126" viewBox="0 0 125 126" fill="none" xmlns="http://www.w3.org/2000/svg">
<path id="Vector" fill-rule="evenodd" clip-rule="evenodd" d="M69.8529 0H121.324C123.354 0 125 1.64963 125 3.68455V55.2683C125 57.3032 123.354 58.9528 121.324 58.9528H69.8529C67.8225 58.9528 66.1765 57.3032 66.1765 55.2683V3.68455C66.1765 1.64963 67.8225 0 69.8529 0ZM90.3889 29.4764L81.4208 38.4642C80.7029 39.1837 80.7029 40.3502 81.4208 41.0697L84.0204 43.675C84.7383 44.3944 85.9022 44.3944 86.6201 43.675L95.5882 34.6872L104.556 43.675C105.274 44.3944 106.438 44.3944 107.156 43.675L109.756 41.0697C110.474 40.3502 110.474 39.1837 109.756 38.4642L100.788 29.4764L109.756 20.4886C110.474 19.7691 110.474 18.6026 109.756 17.8831L107.156 15.2778C106.438 14.5584 105.274 14.5584 104.556 15.2778L95.5882 24.2657L86.6201 15.2778C85.9022 14.5584 84.7383 14.5584 84.0204 15.2778L81.4208 17.8831C80.7029 18.6026 80.7029 19.7691 81.4208 20.4886L90.3889 29.4764ZM3.67647 0H55.1471C57.1775 0 58.8235 1.64963 58.8235 3.68455V55.2683C58.8235 57.3032 57.1775 58.9528 55.1471 58.9528H3.67647C1.64601 58.9528 0 57.3032 0 55.2683V3.68455C0 1.64963 1.64601 0 3.67647 0ZM29.4118 47.8992C39.5641 47.8992 47.7941 39.651 47.7941 29.4764C47.7941 19.3018 39.5641 11.0537 29.4118 11.0537C19.2595 11.0537 11.0294 19.3018 11.0294 29.4764C11.0294 39.651 19.2595 47.8992 29.4118 47.8992ZM3.67647 66.3219H55.1471C57.1775 66.3219 58.8235 67.9715 58.8235 70.0065V121.59C58.8235 123.625 57.1775 125.275 55.1471 125.275H3.67647C1.64601 125.275 0 123.625 0 121.59V70.0065C0 67.9715 1.64601 66.3219 3.67647 66.3219ZM24.2124 95.7983L15.2443 104.786C14.5264 105.506 14.5264 106.672 15.2443 107.392L17.8439 109.997C18.5618 110.716 19.7257 110.716 20.4436 109.997L29.4118 101.009L38.3799 109.997C39.0978 110.716 40.2617 110.716 40.9796 109.997L43.5792 107.392C44.2971 106.672 44.2971 105.506 43.5792 104.786L34.6111 95.7983L43.5792 86.8105C44.2971 86.091 44.2971 84.9245 43.5792 84.205L40.9796 81.5997C40.2617 80.8803 39.0978 80.8803 38.3799 81.5997L29.4118 90.5876L20.4436 81.5997C19.7257 80.8803 18.5618 80.8803 17.8439 81.5997L15.2443 84.205C14.5264 84.9245 14.5264 86.091 15.2443 86.8105L24.2124 95.7983ZM69.8529 66.3219H121.324C123.354 66.3219 125 67.9715 125 70.0065V121.59C125 123.625 123.354 125.275 121.324 125.275H69.8529C67.8225 125.275 66.1765 123.625 66.1765 121.59V70.0065C66.1765 67.9715 67.8225 66.3219 69.8529 66.3219ZM29.4118 40.5301C23.3204 40.5301 18.3824 35.5812 18.3824 29.4764C18.3824 23.3716 23.3204 18.4228 29.4118 18.4228C35.5031 18.4228 40.4412 23.3716 40.4412 29.4764C40.4412 35.5812 35.5031 40.5301 29.4118 40.5301Z" fill="#FF7F50"/>
</svg>
