<svg width="125" height="125" viewBox="0 0 125 125" fill="none" xmlns="http://www.w3.org/2000/svg">
<g id="Image Globe" clip-path="url(#clip0_1_72)">
<path id="Vector" fill-rule="evenodd" clip-rule="evenodd" d="M10.6472 94.925L18.8161 82.6224C19.1511 82.1162 19.5866 81.685 20.0953 81.3557C20.604 81.0263 21.175 80.8061 21.7724 80.7086L45.5788 76.803L48.8464 63.7193L41.0665 52.0025C40.5896 51.2563 40.3333 50.3895 40.3274 49.5029V35.9896C40.3313 35.0194 40.6479 34.0766 41.2299 33.3022C41.8119 32.5278 42.628 31.9633 43.5561 31.6934L72.0693 23.726L76.3871 1.85463C64.4191 -0.918914 51.9014 -0.0750818 40.4102 4.27987C28.9189 8.63482 18.968 16.3062 11.8104 26.3279C4.65275 36.3497 0.608538 48.2737 0.186979 60.5985C-0.234579 72.9233 2.98537 85.0978 9.44135 95.589L10.6472 94.925Z" fill="#FF7F50"/>
<path id="Vector_2" fill-rule="evenodd" clip-rule="evenodd" d="M103.344 88.7932L88.1346 84.8876C87.1717 84.6498 86.3172 84.0921 85.7099 83.3051C85.1026 82.518 84.7781 81.548 84.7893 80.5524V67.2734C84.7853 66.6872 84.8967 66.106 85.1169 65.5631C85.3372 65.0202 85.6621 64.5264 86.073 64.1099L99.4154 50.7137C99.8271 50.2941 100.318 49.9607 100.858 49.7328C101.399 49.5048 101.98 49.3869 102.566 49.3858H120.343C121.109 49.38 121.862 49.5825 122.522 49.9716L123.533 50.5184C121.798 41.8056 118.233 33.5644 113.074 26.3447C107.916 19.125 101.284 13.0927 93.6194 8.65038C90.8114 7.11424 87.8844 5.80814 84.8671 4.74478L80.1992 28.1784C80.0426 28.9881 79.6651 29.7382 79.1087 30.345C78.5524 30.9519 77.8391 31.3917 77.0483 31.6153L49.1575 39.4265V48.0969L57.2875 60.3605C57.6348 60.8754 57.8697 61.4582 57.977 62.0707C58.0843 62.6832 58.0614 63.3116 57.9099 63.9146L53.4753 81.7632C53.2714 82.6092 52.8228 83.3757 52.186 83.9664C51.5492 84.5571 50.7527 84.9456 49.8966 85.0829L25.1177 89.1838L17.3379 100.901C16.8627 101.626 16.1866 102.196 15.3929 102.541L14.8483 102.775C20.4752 109.512 27.4549 114.981 35.331 118.825C43.2072 122.669 51.8025 124.8 60.5552 125.08C69.3079 125.36 78.021 123.783 86.125 120.451C94.229 117.119 101.541 112.107 107.584 105.744L103.344 88.7932Z" fill="#FF7F50"/>
<path id="Vector_3" fill-rule="evenodd" clip-rule="evenodd" d="M119.215 58.3296H104.395L93.6194 69.109V77.1546L108.051 80.7868C108.833 80.9784 109.548 81.382 110.118 81.9537C110.687 82.5253 111.089 83.243 111.28 84.0284L114.508 96.995C115.17 96.0186 115.831 95.0812 116.414 94.0267C122.14 84.1241 125.021 72.8226 124.739 61.3759L119.215 58.3296Z" fill="#FF7F50"/>
</g>
<defs>
<clipPath id="clip0_1_72">
<rect width="125" height="125" fill="white"/>
</clipPath>
</defs>
</svg>
