<svg width="130" height="50" viewBox="0 0 130 50" fill="none" xmlns="http://www.w3.org/2000/svg">
<g clip-path="url(#clip0_1_19)">
<path d="M47.0451 36.32C44.9118 36.32 43.1411 36.0213 41.7331 35.424C40.3251 34.8053 39.2585 34.0053 38.5331 33.024C37.8078 32.0427 37.4238 30.9973 37.3811 29.888C37.3811 29.7173 37.4451 29.568 37.5731 29.44C37.7225 29.2907 37.8931 29.216 38.0851 29.216H42.1171C42.4158 29.216 42.6398 29.2693 42.7891 29.376C42.9598 29.4827 43.1091 29.6213 43.2371 29.792C43.4078 30.112 43.6425 30.4213 43.9411 30.72C44.2611 31.0187 44.6665 31.264 45.1571 31.456C45.6691 31.6267 46.2985 31.712 47.0451 31.712C48.2825 31.712 49.2105 31.52 49.8291 31.136C50.4691 30.752 50.7891 30.2293 50.7891 29.568C50.7891 29.0987 50.6185 28.7147 50.2771 28.416C49.9358 28.096 49.3811 27.8187 48.6131 27.584C47.8665 27.328 46.8638 27.072 45.6051 26.816C43.9838 26.4747 42.5971 26.0373 41.4451 25.504C40.3145 24.9493 39.4505 24.2347 38.8531 23.36C38.2558 22.464 37.9571 21.3547 37.9571 20.032C37.9571 18.7307 38.3198 17.568 39.0451 16.544C39.7918 15.52 40.8265 14.72 42.1491 14.144C43.4718 13.568 45.0398 13.28 46.8531 13.28C48.3251 13.28 49.6158 13.472 50.7251 13.856C51.8558 14.24 52.8051 14.752 53.5731 15.392C54.3411 16.032 54.9171 16.7147 55.3011 17.44C55.7065 18.144 55.9198 18.8373 55.9411 19.52C55.9411 19.6907 55.8771 19.8507 55.7491 20C55.6211 20.128 55.4611 20.192 55.2691 20.192H51.0451C50.8105 20.192 50.6078 20.1493 50.4371 20.064C50.2665 19.9787 50.1171 19.84 49.9891 19.648C49.8611 19.1787 49.5198 18.7733 48.9651 18.432C48.4318 18.0693 47.7278 17.888 46.8531 17.888C45.9145 17.888 45.1785 18.0587 44.6451 18.4C44.1331 18.72 43.8771 19.2213 43.8771 19.904C43.8771 20.3307 44.0158 20.704 44.2931 21.024C44.5918 21.344 45.0718 21.6213 45.7331 21.856C46.4158 22.0907 47.3438 22.336 48.5171 22.592C50.4585 22.9547 52.0265 23.4133 53.2211 23.968C54.4158 24.5013 55.2905 25.2053 55.8451 26.08C56.3998 26.9333 56.6771 28.0107 56.6771 29.312C56.6771 30.7627 56.2611 32.0213 55.4291 33.088C54.6185 34.1333 53.4878 34.9333 52.0371 35.488C50.5865 36.0427 48.9225 36.32 47.0451 36.32ZM58.2569 36C58.0862 36 57.9262 35.936 57.7769 35.808C57.6489 35.6587 57.5849 35.4987 57.5849 35.328C57.5849 35.2213 57.5955 35.1253 57.6169 35.04L65.1369 14.496C65.2009 14.2613 65.3289 14.0587 65.5209 13.888C65.7342 13.696 66.0222 13.6 66.3849 13.6H71.1209C71.4835 13.6 71.7609 13.696 71.9529 13.888C72.1662 14.0587 72.3049 14.2613 72.3689 14.496L79.8569 35.04C79.8995 35.1253 79.9209 35.2213 79.9209 35.328C79.9209 35.4987 79.8462 35.6587 79.6969 35.808C79.5689 35.936 79.4089 36 79.2169 36H75.2809C74.9609 36 74.7155 35.9253 74.5449 35.776C74.3955 35.6053 74.2995 35.456 74.2569 35.328L73.0089 32.064H64.4649L63.2489 35.328C63.2062 35.456 63.1102 35.6053 62.9609 35.776C62.8115 35.9253 62.5555 36 62.1929 36H58.2569ZM65.7769 27.456H71.7289L68.7209 19.008L65.7769 27.456Z" fill="#F0FFFF"/>
<path d="M88.1711 36C87.9365 36 87.7445 35.9253 87.5951 35.776C87.4458 35.6267 87.3711 35.4347 87.3711 35.2V18.624H81.6751C81.4405 18.624 81.2485 18.5493 81.0991 18.4C80.9498 18.2293 80.8751 18.0373 80.8751 17.824V14.4C80.8751 14.1653 80.9498 13.9733 81.0991 13.824C81.2485 13.6747 81.4405 13.6 81.6751 13.6H98.8911C99.1258 13.6 99.3178 13.6747 99.4671 13.824C99.6165 13.9733 99.6911 14.1653 99.6911 14.4V17.824C99.6911 18.0373 99.6165 18.2293 99.4671 18.4C99.3178 18.5493 99.1258 18.624 98.8911 18.624H93.1951V35.2C93.1951 35.4347 93.1205 35.6267 92.9711 35.776C92.8218 35.9253 92.6298 36 92.3951 36H88.1711Z" fill="#FF7F50"/>
</g>
<defs>
<clipPath id="clip0_1_19">
<rect width="130" height="50" fill="white"/>
</clipPath>
</defs>
</svg>
