<svg width="125" height="115" viewBox="0 0 125 115" fill="none" xmlns="http://www.w3.org/2000/svg">
<g id="Profile Image" clip-path="url(#clip0_1_36)">
<g id="Group">
<path id="Vector" d="M7.97872 0L10.6383 13.2918H114.362L117.021 0H7.97872ZM0 15.9501L7.97872 77.0923H117.021L125 15.9501H0ZM10.6383 26.5835H114.362L109.043 69.1172H90.4255V63.8005H69.1489V69.1172L63.8298 69.0999C63.8298 66.4416 63.8713 64.0039 63.8713 61.0588C63.8712 57.0714 60.8377 54.2207 57.5132 52.6684C50.5856 49.9314 42.2118 49.6695 35.6133 52.6684C32.2959 54.2211 29.2968 57.0713 29.2968 61.0588C29.3346 63.7116 29.258 66.714 29.2553 69.0999L15.9574 69.1172L10.6383 26.5835ZM46.5841 30.488C41.4747 30.488 37.2756 34.6851 37.2756 39.7922C37.2756 44.8993 41.4747 49.0965 46.5841 49.0965C51.6936 49.0965 55.8926 44.8993 55.8926 39.7922C55.8926 34.6851 51.6936 30.488 46.5841 30.488ZM69.1489 35.8878V41.2045H94.4149V35.8878H69.1489ZM69.1489 45.192V50.5087H93.0851V45.192H69.1489ZM69.1489 54.4963V59.813H91.7553V54.4963H69.1489ZM0 79.7506L7.97872 114.309H117.021L125 79.7506H0Z" fill="#FF7F50"/>
</g>
</g>
<defs>
<clipPath id="clip0_1_36">
<rect width="125" height="114.309" fill="white"/>
</clipPath>
</defs>
</svg>
