<svg width="64" height="24" viewBox="0 0 64 24" fill="none" xmlns="http://www.w3.org/2000/svg">
<path d="M10.5451 23.32C8.41179 23.32 6.64113 23.0213 5.23313 22.424C3.82513 21.8053 2.75846 21.0053 2.03313 20.024C1.30779 19.0427 0.923792 17.9973 0.881125 16.888C0.881125 16.7173 0.945125 16.568 1.07313 16.44C1.22246 16.2907 1.39313 16.216 1.58513 16.216H5.61713C5.91579 16.216 6.13979 16.2693 6.28913 16.376C6.45979 16.4827 6.60913 16.6213 6.73713 16.792C6.90779 17.112 7.14246 17.4213 7.44113 17.72C7.76113 18.0187 8.16646 18.264 8.65713 18.456C9.16913 18.6267 9.79846 18.712 10.5451 18.712C11.7825 18.712 12.7105 18.52 13.3291 18.136C13.9691 17.752 14.2891 17.2293 14.2891 16.568C14.2891 16.0987 14.1185 15.7147 13.7771 15.416C13.4358 15.096 12.8811 14.8187 12.1131 14.584C11.3665 14.328 10.3638 14.072 9.10513 13.816C7.48379 13.4747 6.09713 13.0373 4.94513 12.504C3.81446 11.9493 2.95046 11.2347 2.35313 10.36C1.75579 9.464 1.45713 8.35467 1.45713 7.032C1.45713 5.73067 1.81979 4.568 2.54513 3.544C3.29179 2.52 4.32646 1.72 5.64913 1.144C6.97179 0.567999 8.53979 0.279999 10.3531 0.279999C11.8251 0.279999 13.1158 0.471999 14.2251 0.855999C15.3558 1.24 16.3051 1.752 17.0731 2.392C17.8411 3.032 18.4171 3.71467 18.8011 4.44C19.2065 5.144 19.4198 5.83733 19.4411 6.52C19.4411 6.69067 19.3771 6.85067 19.2491 7C19.1211 7.128 18.9611 7.192 18.7691 7.192H14.5451C14.3105 7.192 14.1078 7.14933 13.9371 7.064C13.7665 6.97867 13.6171 6.84 13.4891 6.648C13.3611 6.17867 13.0198 5.77333 12.4651 5.432C11.9318 5.06933 11.2278 4.888 10.3531 4.888C9.41446 4.888 8.67846 5.05867 8.14513 5.4C7.63313 5.72 7.37713 6.22133 7.37713 6.904C7.37713 7.33067 7.51579 7.704 7.79313 8.024C8.09179 8.344 8.57179 8.62133 9.23313 8.856C9.91579 9.09067 10.8438 9.336 12.0171 9.592C13.9585 9.95467 15.5265 10.4133 16.7211 10.968C17.9158 11.5013 18.7905 12.2053 19.3451 13.08C19.8998 13.9333 20.1771 15.0107 20.1771 16.312C20.1771 17.7627 19.7611 19.0213 18.9291 20.088C18.1185 21.1333 16.9878 21.9333 15.5371 22.488C14.0865 23.0427 12.4225 23.32 10.5451 23.32ZM21.7569 23C21.5862 23 21.4262 22.936 21.2769 22.808C21.1489 22.6587 21.0849 22.4987 21.0849 22.328C21.0849 22.2213 21.0955 22.1253 21.1169 22.04L28.6369 1.496C28.7009 1.26133 28.8289 1.05867 29.0209 0.887999C29.2342 0.695999 29.5222 0.599998 29.8849 0.599998H34.6209C34.9835 0.599998 35.2609 0.695999 35.4529 0.887999C35.6662 1.05867 35.8049 1.26133 35.8689 1.496L43.3569 22.04C43.3995 22.1253 43.4209 22.2213 43.4209 22.328C43.4209 22.4987 43.3462 22.6587 43.1969 22.808C43.0689 22.936 42.9089 23 42.7169 23H38.7809C38.4609 23 38.2155 22.9253 38.0449 22.776C37.8955 22.6053 37.7995 22.456 37.7569 22.328L36.5089 19.064H27.9649L26.7489 22.328C26.7062 22.456 26.6102 22.6053 26.4609 22.776C26.3115 22.9253 26.0555 23 25.6929 23H21.7569ZM29.2769 14.456H35.2289L32.2209 6.008L29.2769 14.456Z" fill="#F0FFFF"/>
<path d="M51.6711 23C51.4365 23 51.2445 22.9253 51.0951 22.776C50.9458 22.6267 50.8711 22.4347 50.8711 22.2V5.624H45.1751C44.9405 5.624 44.7485 5.54933 44.5991 5.4C44.4498 5.22933 44.3751 5.03733 44.3751 4.824V1.4C44.3751 1.16533 44.4498 0.973332 44.5991 0.823999C44.7485 0.674665 44.9405 0.599998 45.1751 0.599998H62.3911C62.6258 0.599998 62.8178 0.674665 62.9671 0.823999C63.1165 0.973332 63.1911 1.16533 63.1911 1.4V4.824C63.1911 5.03733 63.1165 5.22933 62.9671 5.4C62.8178 5.54933 62.6258 5.624 62.3911 5.624H56.6951V22.2C56.6951 22.4347 56.6205 22.6267 56.4711 22.776C56.3218 22.9253 56.1298 23 55.8951 23H51.6711Z" fill="#FF7F50"/>
</svg>
